<svg width="40.000000" height="40.000000" viewBox="0 0 40 40" fill="none" xmlns="http://www.w3.org/2000/svg" xmlns:xlink="http://www.w3.org/1999/xlink">
	<desc>
			Created with Pixso.
	</desc>
	<defs>
		<clipPath id="clip1_157">
			<rect id="Frame" rx="-0.500000" width="39.000000" height="39.000000" transform="translate(0.500000 0.500000)" fill="white" fill-opacity="0"/>
		</clipPath>
	</defs>
	<rect id="Frame" rx="-0.500000" width="39.000000" height="39.000000" transform="translate(0.500000 0.500000)" fill="#FFFFFF" fill-opacity="0"/>
	<g clip-path="url(#clip1_157)">
		<path id="Vector" d="M17.26 5L23.39 5C24.89 5 26.1 5 27.09 5.06C28.1 5.13 29 5.28 29.85 5.63C31.89 6.48 33.51 8.1 34.36 10.14C34.71 10.99 34.86 11.89 34.93 12.9C35 13.89 35 15.1 35 16.6L35 16.72C35 18.22 35 19.44 34.93 20.42C34.86 21.44 34.71 22.33 34.36 23.18C33.51 25.23 31.89 26.85 29.85 27.69C29 28.05 28.1 28.19 27.09 28.26C26.1 28.33 24.89 28.33 23.39 28.33L19.04 28.33C18.28 28.33 18.12 28.34 18 28.36C17.71 28.42 17.44 28.55 17.22 28.75C17.12 28.84 17.03 28.95 16.57 29.57L16.53 29.61C15.52 30.96 14.72 32.03 14.06 32.81C13.44 33.54 12.74 34.27 11.91 34.62C9.61 35.57 6.96 34.68 5.69 32.55C5.23 31.77 5.11 30.76 5.06 29.81C5 28.79 5 27.45 5 25.77L5 17.26C5 15.45 5 13.99 5.09 12.81C5.19 11.6 5.4 10.53 5.9 9.55C6.7 7.98 7.98 6.7 9.55 5.9C10.53 5.4 11.6 5.19 12.81 5.09C13.99 5 15.45 5 17.26 5ZM13.09 8.41C12.08 8.5 11.5 8.65 11.06 8.87C10.12 9.35 9.35 10.12 8.87 11.06C8.65 11.5 8.5 12.08 8.41 13.09C8.33 14.11 8.33 15.43 8.33 17.33L8.33 25.71C8.33 27.47 8.33 28.7 8.38 29.61C8.41 30.05 8.45 30.37 8.49 30.59C8.53 30.78 8.56 30.85 8.56 30.85C8.99 31.56 9.86 31.85 10.63 31.54C10.63 31.54 10.7 31.5 10.84 31.37C11.01 31.22 11.23 30.99 11.52 30.65C12.1 29.96 12.85 28.97 13.9 27.57C13.92 27.53 13.95 27.5 13.97 27.47C14.32 27.01 14.62 26.6 15 26.26C15.66 25.67 16.47 25.27 17.34 25.09C17.83 24.99 18.34 24.99 18.92 24.99C18.96 25 19 25 19.04 25L23.33 25C24.9 25 26 24.99 26.86 24.94C27.71 24.88 28.2 24.77 28.58 24.61C29.8 24.11 30.77 23.13 31.28 21.91C31.44 21.53 31.54 21.04 31.6 20.2C31.66 19.34 31.66 18.24 31.66 16.66C31.66 15.09 31.66 13.99 31.6 13.13C31.54 12.28 31.44 11.79 31.28 11.41C30.77 10.19 29.8 9.22 28.58 8.71C28.2 8.55 27.71 8.45 26.86 8.39C26 8.33 24.9 8.33 23.33 8.33L17.33 8.33C15.43 8.33 14.11 8.33 13.09 8.41Z" fill="#000000" fill-opacity="1.000000" fill-rule="evenodd"/>
		<path id="Vector" d="M13.33 18.33C14.25 18.33 15 17.58 15 16.66C15 15.74 14.25 15 13.33 15C12.41 15 11.66 15.74 11.66 16.66C11.66 17.58 12.41 18.33 13.33 18.33Z" fill="#000000" fill-opacity="1.000000" fill-rule="nonzero"/>
		<path id="Vector" d="M21.66 16.66C21.66 17.58 20.92 18.33 20 18.33C19.07 18.33 18.33 17.58 18.33 16.66C18.33 15.74 19.07 15 20 15C20.92 15 21.66 15.74 21.66 16.66Z" fill="#000000" fill-opacity="1.000000" fill-rule="nonzero"/>
		<path id="Vector" d="M28.33 16.66C28.33 17.58 27.58 18.33 26.66 18.33C25.74 18.33 25 17.58 25 16.66C25 15.74 25.74 15 26.66 15C27.58 15 28.33 15.74 28.33 16.66Z" fill="#000000" fill-opacity="1.000000" fill-rule="nonzero"/>
	</g>
</svg>
