<svg width="40.000000" height="40.000000" viewBox="0 0 40 40" fill="none" xmlns="http://www.w3.org/2000/svg" xmlns:xlink="http://www.w3.org/1999/xlink">
	<desc>
			Created with Pixso.
	</desc>
	<defs>
		<clipPath id="clip1_149">
			<rect id="Frame" rx="-0.500000" width="39.000000" height="39.000000" transform="translate(0.500000 0.500000)" fill="white" fill-opacity="0"/>
		</clipPath>
	</defs>
	<rect id="Frame" rx="-0.500000" width="39.000000" height="39.000000" transform="translate(0.500000 0.500000)" fill="#FFFFFF" fill-opacity="0"/>
	<g clip-path="url(#clip1_149)">
		<path id="Vector" d="M13.33 10C13.33 6.31 16.31 3.33 20 3.33C23.68 3.33 26.66 6.31 26.66 10L26.66 18.33L23.33 18.33L23.33 10C23.33 8.16 21.84 6.66 20 6.66C18.15 6.66 16.66 8.16 16.66 10L16.66 18.33L13.33 18.33L13.33 10Z" fill="#000000" fill-opacity="1.000000" fill-rule="evenodd"/>
		<path id="Vector" d="M16.26 15L23.73 15C25.07 15 26.18 15 27.08 15.07C28.02 15.15 28.88 15.31 29.69 15.72C30.94 16.36 31.96 17.38 32.6 18.64C33.01 19.44 33.18 20.31 33.25 21.24C33.33 22.14 33.33 23.25 33.33 24.59L33.33 27.06C33.33 28.41 33.33 29.51 33.25 30.41C33.18 31.35 33.01 32.21 32.6 33.02C31.96 34.28 30.94 35.3 29.69 35.93C28.88 36.35 28.02 36.51 27.08 36.59C26.18 36.66 25.07 36.66 23.73 36.66L16.26 36.66C14.92 36.66 13.81 36.66 12.91 36.59C11.97 36.51 11.11 36.35 10.3 35.93C9.05 35.3 8.03 34.28 7.39 33.02C6.98 32.21 6.81 31.35 6.74 30.41C6.66 29.51 6.66 28.41 6.66 27.06L6.66 24.59C6.66 23.25 6.66 22.14 6.74 21.24C6.81 20.31 6.98 19.44 7.39 18.64C8.03 17.38 9.05 16.36 10.3 15.72C11.11 15.31 11.97 15.15 12.91 15.07C13.81 15 14.92 15 16.26 15ZM13.18 18.39C12.45 18.45 12.08 18.56 11.82 18.69C11.19 19.01 10.68 19.52 10.36 20.15C10.23 20.41 10.12 20.78 10.06 21.51C10 22.26 10 23.23 10 24.66L10 27C10 28.42 10 29.39 10.06 30.14C10.12 30.87 10.23 31.25 10.36 31.51C10.68 32.14 11.19 32.65 11.82 32.97C12.08 33.1 12.45 33.21 13.18 33.27C13.93 33.33 14.9 33.33 16.33 33.33L23.66 33.33C25.09 33.33 26.06 33.33 26.81 33.27C27.54 33.21 27.91 33.1 28.18 32.97C28.8 32.65 29.31 32.14 29.63 31.51C29.76 31.25 29.87 30.87 29.93 30.14C29.99 29.39 30 28.42 30 27L30 24.66C30 23.23 29.99 22.26 29.93 21.51C29.87 20.78 29.76 20.41 29.63 20.15C29.31 19.52 28.8 19.01 28.18 18.69C27.91 18.56 27.54 18.45 26.81 18.39C26.06 18.33 25.09 18.33 23.66 18.33L16.33 18.33C14.9 18.33 13.93 18.33 13.18 18.39Z" fill="#000000" fill-opacity="1.000000" fill-rule="evenodd"/>
		<path id="Vector" d="M18.33 26.66C18.33 25.74 19.07 25 20 25C20.92 25 21.66 25.74 21.66 26.66L21.66 28.33C21.66 29.25 20.92 30 20 30C19.07 30 18.33 29.25 18.33 28.33L18.33 26.66Z" fill="#000000" fill-opacity="1.000000" fill-rule="nonzero"/>
	</g>
</svg>
