<svg width="40.000000" height="40.000000" viewBox="0 0 40 40" fill="none" xmlns="http://www.w3.org/2000/svg" xmlns:xlink="http://www.w3.org/1999/xlink">
	<desc>
			Created with Pixso.
	</desc>
	<defs>
		<clipPath id="clip1_154">
			<rect id="Frame" rx="-0.500000" width="39.000000" height="39.000000" transform="translate(0.500000 0.500000)" fill="white" fill-opacity="0"/>
		</clipPath>
	</defs>
	<rect id="Frame" rx="-0.500000" width="39.000000" height="39.000000" transform="translate(0.500000 0.500000)" fill="#FFFFFF" fill-opacity="0"/>
	<g clip-path="url(#clip1_154)">
		<path id="Vector" d="M20.37 21.66L19.54 29.41L28.24 18.33L19.62 18.33L20.45 10.61L11.77 21.66L20.37 21.66ZM24.38 5.19C24.56 3.52 22.44 2.66 21.41 3.98L7.03 22.3C6.17 23.39 6.95 25 8.34 25L16.66 25L15.61 34.82C15.43 36.49 17.55 37.35 18.58 36.03L32.98 17.69C33.84 16.6 33.06 15 31.67 15L23.33 15L24.38 5.19Z" fill="#000000" fill-opacity="1.000000" fill-rule="evenodd"/>
	</g>
</svg>
